# xmcd
#
# Track frame offsets:
#	150
#	3981
#	16095
#	30972
#	35997
#	50282
#	61314
#	68675
#	75849
#	83737
#	96056
#	105725
#	119517
#	128922
#	142564
#	153650
#	157764
#	166594
#	171624
#	182785
#
# Disc length: 2611 seconds
#
# Revision: 0
# Processed by: cddbd v1.5.2PL0 Copyright (c) Steve Scherf et al.
# Submitted via: dBpowerAMP V4.0
#
DISCID=e90a3114
DTITLE=Merle Haggard  - Live in Concert
DYEAR=2006
DGENRE=Country
TTITLE0=Track01-Movin On
TTITLE1=Track02-Okie from Muskogee
TTITLE2=Track03-The Fightin' Side of Me
TTITLE3=Track04-Swinging Doors
TTITLE4=Track05-Soldier's Last Letter
TTITLE5=Track06-Mama Tried
TTITLE6=Track07-The Fugitive (Feat. Bonnie Owen)
TTITLE7=Track08-Sing Me Back Home
TTITLE8=Track09-Branded Man
TTITLE9=Track10-Workin' Man Blues
TTITLE10=Track11-I Can't Be Myself
TTITLE11=Track12-Faded Love (Feat. Bonnie Owen)
TTITLE12=Track13-Today I Started Loving You Again
TTITLE13=Track14-Right or Wrong
TTITLE14=Track15-Silver Wings
TTITLE15=Track16-Devil Woman
TTITLE16=Track17-I Want to Be a Cowboy's Sweetheart (Feat. Bonnie Owen)
TTITLE17=Track18-Love's Gonna Live Here
TTITLE18=Track19-Lead Me On (Feat. Bonnie Owen)
TTITLE19=Track20-What's So Bad About Feeling Good?
EXTD=The Platinum Artist Series
EXTT0=
EXTT1=
EXTT2=
EXTT3=
EXTT4=
EXTT5=
EXTT6=
EXTT7=
EXTT8=
EXTT9=
EXTT10=
EXTT11=
EXTT12=
EXTT13=
EXTT14=
EXTT15=
EXTT16=
EXTT17=
EXTT18=
EXTT19=
PLAYORDER=
